# xmcd CD database file
#
# Track frame offsets:
#	187
#	64817
#	81297
#	140700
#	201675
#	232355
#
# Disc length: 3577 seconds
#
# Revision: 0
# Processed by: cddbd v1.5.1PL0 Copyright (c) Steve Scherf et al.
# Submitted via: CDex 1.51
#
DISCID=630df706
DTITLE=George Gershwin - Greatest Hits - Reader's Digest
DYEAR=1900
DGENRE=Jazz
TTITLE0=Rhapsody In Blue
TTITLE1=Theme from Prelude No. 2
TTITLE2=First Movement: Allegro
TTITLE3=Second Movement: Adagio Andante Con Motto
TTITLE4=Third Movement: Allegro Agitato
TTITLE5=Variations on "I Got Rhythm"
EXTD=
EXTT0=
EXTT1=
EXTT2=
EXTT3=
EXTT4=
EXTT5=
PLAYORDER=
